<svg xmlns="http://www.w3.org/2000/svg" xmlns:xlink="http://www.w3.org/1999/xlink" version="1.1" x="0px" y="0px" viewBox="0 0 48 60" enable-background="new 0 0 48 48" xml:space="preserve"><g><path d="M24,2C11.8691406,2,2,11.8691406,2,24s9.8691406,22,22,22s22-9.8691406,22-22S36.1308594,2,24,2z M36.3017578,25.5185547   l-7,6C28.9243164,31.8417969,28.4614258,32,28.0009766,32c-0.5634766,0-1.1240234-0.2373047-1.5195313-0.6982422   c-0.71875-0.8388672-0.621582-2.1015625,0.2167969-2.8203125L29.5933228,26H13c-1.1044922,0-2-0.8955078-2-2s0.8955078-2,2-2   h16.5933228l-2.8950806-2.4814453c-0.8383789-0.71875-0.9355469-1.9814453-0.2167969-2.8203125   c0.71875-0.8383789,1.9819336-0.9345703,2.8203125-0.2167969l7,6C36.7446289,22.8613281,37,23.4160156,37,24   S36.7446289,25.1386719,36.3017578,25.5185547z"/></g></svg>