<svg xmlns="http://www.w3.org/2000/svg" xmlns:xlink="http://www.w3.org/1999/xlink" version="1.1" x="0px" y="0px" viewBox="0 0 64 80" enable-background="new 0 0 64 64" xml:space="preserve"><g display="none"><path display="inline" fill="#000000" stroke="#ED1C24" stroke-width="2" stroke-linejoin="round" stroke-miterlimit="10" d="   M27.5,36.583c-0.194,0.994-1.856,1.971-2.65,2.506c-1.202,0.809-2.188,1.92-3.371,2.722c-1.448,0.98-4.734,2.036-5.182-0.671   c-0.221-1.341,1.607-1.888,2.674-2.22c1.562-0.486,2.15,0.215,3.083,1.479c1.936,2.625,1.661,6.896,0.119,9.623   c-1.34,2.369-2.922,5.154-5.642,6.085c-2.952,1.01-7.37-0.021-8.214-3.423c-0.667-2.688,0.971-5.932,4.02-5.739   c3.319,0.21,4.848,3.113,3.154,5.862c-1.31,2.126-3.037,4.77-5.363,5.854c-2.136,0.996-4.494,0.937-6.711,1.588"/></g><g><path d="M59.661,4.339c-0.289-0.288-0.723-0.372-1.096-0.214l-53.954,22.8c-0.307,0.129-0.529,0.403-0.592,0.729   c-0.064,0.326,0.039,0.663,0.274,0.898c0.156,0.156,0.159,0.158,22.774,8.38l8.148,22.408c0.141,0.386,0.503,0.647,0.915,0.658   c0.008,0,0.017,0,0.025,0c0.401,0,0.765-0.24,0.921-0.611L59.875,5.436C60.033,5.061,59.949,4.627,59.661,4.339z M7.734,27.777   L54.625,7.962L27.591,34.996C24.797,33.98,12.888,29.651,7.734,27.777z M36.225,56.266l-7.22-19.856L56.039,9.375L36.225,56.266z"/></g><text x="0" y="79" fill="#000000" font-size="5px" font-weight="bold" font-family="'Helvetica Neue', Helvetica, Arial-Unicode, Arial, Sans-serif">Created by Alfonso López-Sanz</text><text x="0" y="84" fill="#000000" font-size="5px" font-weight="bold" font-family="'Helvetica Neue', Helvetica, Arial-Unicode, Arial, Sans-serif">from the Noun Project</text></svg>